<?xml version="1.0" encoding="UTF-8"?>
<svg version="1.1" xmlns="http://www.w3.org/2000/svg" width="99" height="68">
<path d="M0 0 C32.67 0 65.34 0 99 0 C99 22.44 99 44.88 99 68 C66.33 68 33.66 68 0 68 C0 45.56 0 23.12 0 0 Z " fill="#D7D7D9" transform="translate(0,0)"/>
<path d="M0 0 C0 0.66 0 1.32 0 2 C-1.98 2 -3.96 2 -6 2 C-5.505 2.4125 -5.01 2.825 -4.5 3.25 C-3 5 -3 5 -3 9 C-2.34 9 -1.68 9 -1 9 C-1 10.32 -1 11.64 -1 13 C-1.99 13.33 -2.98 13.66 -4 14 C-4.33 17.3 -4.66 20.6 -5 24 C-4.34 24 -3.68 24 -3 24 C-3.33 23.01 -3.66 22.02 -4 21 C-3.01 20.401875 -2.02 19.80375 -1 19.1875 C-0.01 18.465625 0.98 17.74375 2 17 C2 16.01 2 15.02 2 14 C3.65 14 5.3 14 7 14 C7 17 7 17 5 19.1875 C4.01 20.0846875 4.01 20.0846875 3 21 C4.32 21.66 5.64 22.32 7 23 C7.33 19.7 7.66 16.4 8 13 C7.01 13 6.02 13 5 13 C5 12.34 5 11.68 5 11 C6.65 11 8.3 11 10 11 C10 9.68 10 8.36 10 7 C10.66 7 11.32 7 12 7 C12 8.32 12 9.64 12 11 C12.66 11 13.32 11 14 11 C14 9.68 14 8.36 14 7 C14.99 7 15.98 7 17 7 C17.495 7.99 17.495 7.99 18 9 C19.32 9 20.64 9 22 9 C22.66 9.33 23.32 9.66 24 10 C24 12.31 24 14.62 24 17 C24.66 16.01 25.32 15.02 26 14 C25.814375 13.34 25.62875 12.68 25.4375 12 C25.293125 11.34 25.14875 10.68 25 10 C26.4375 8.25 26.4375 8.25 28 7 C28.495 7.99 28.495 7.99 29 9 C29.5878125 9.8971875 29.5878125 9.8971875 30.1875 10.8125 C31 13 31 13 30.125 15.75 C29.75375 16.4925 29.3825 17.235 29 18 C28.34 18 27.68 18 27 18 C27 18.99 27 19.98 27 21 C27.66 21 28.32 21 29 21 C29 21.66 29 22.32 29 23 C29.99 23.33 30.98 23.66 32 24 C33 25.6875 33 25.6875 33 28 C29.26168224 33.60747664 29.26168224 33.60747664 25.1875 34.875 C24.465625 34.91625 23.74375 34.9575 23 35 C22.67 35.99 22.34 36.98 22 38 C19.19096379 39.4045181 16.81885492 39.13209254 13.6875 39.125 C12.55699219 39.12757812 11.42648438 39.13015625 10.26171875 39.1328125 C7 39 7 39 4.26953125 38.4296875 C1.84737245 37.78021698 1.84737245 37.78021698 -1 39 C-2.85227252 39.09357692 -4.7078718 39.12993909 -6.5625 39.125 C-7.53316406 39.12757812 -8.50382812 39.13015625 -9.50390625 39.1328125 C-12 39 -12 39 -14 38 C-14 37.34 -14 36.68 -14 36 C-9.38 36 -4.76 36 0 36 C0.33 35.34 0.66 34.68 1 34 C-1.72906474 33.83150207 -4.45823171 33.6651397 -7.1875 33.5 C-7.95642578 33.45230469 -8.72535156 33.40460937 -9.51757812 33.35546875 C-13.351504 33.12510411 -17.15690177 32.9383872 -21 33 C-21.66 31.68 -22.32 30.36 -23 29 C-20.36 29 -17.72 29 -15 29 C-15 28.34 -15 27.68 -15 27 C-12.03 26.67 -9.06 26.34 -6 26 C-6 25.34 -6 24.68 -6 24 C-12.6 24.33 -19.2 24.66 -26 25 C-26 23.68 -26 22.36 -26 21 C-22.38132441 19.7937748 -19.07493749 19.89183082 -15.3125 19.9375 C-14.61060547 19.94201172 -13.90871094 19.94652344 -13.18554688 19.95117188 C-11.45699462 19.96293073 -9.72848635 19.98086546 -8 20 C-8 19.34 -8 18.68 -8 18 C-13.94 17.67 -19.88 17.34 -26 17 C-25 12 -25 12 -24 9 C-23.01 9 -22.02 9 -21 9 C-20.67 7.35 -20.34 5.7 -20 4 C-18.68 3.67 -17.36 3.34 -16 3 C-16 2.34 -16 1.68 -16 1 C-11.32009053 -1.41543714 -4.86032337 -2.43016169 0 0 Z " fill="#D0B971" transform="translate(45,6)"/>
<path d="M0 0 C4.81183189 2.01359566 7.90276393 4.86306556 10.125 9.625 C10.351875 10.346875 10.57875 11.06875 10.8125 11.8125 C11.4725 11.8125 12.1325 11.8125 12.8125 11.8125 C13.00922365 13.54064161 13.19446799 15.27009197 13.375 17 C13.53162109 18.44439453 13.53162109 18.44439453 13.69140625 19.91796875 C13.81008751 22.75483377 13.49015639 25.06673671 12.8125 27.8125 C12.1525 26.4925 11.4925 25.1725 10.8125 23.8125 C9.1625 23.8125 7.5125 23.8125 5.8125 23.8125 C6.4725 23.4825 7.1325 23.1525 7.8125 22.8125 C7.8125 22.1525 7.8125 21.4925 7.8125 20.8125 C7.1525 20.8125 6.4925 20.8125 5.8125 20.8125 C5.8125 19.8225 5.8125 18.8325 5.8125 17.8125 C6.4725 17.8125 7.1325 17.8125 7.8125 17.8125 C8.78360486 14.79128489 8.94867383 12.80786737 7.8125 9.8125 C7.1525 9.4825 6.4925 9.1525 5.8125 8.8125 C4.47916667 11.8125 4.47916667 11.8125 5.8125 14.8125 C5.1525 14.8125 4.4925 14.8125 3.8125 14.8125 C3.1525 16.1325 2.4925 17.4525 1.8125 18.8125 C1.8125 15.8425 1.8125 12.8725 1.8125 9.8125 C0.8225 10.1425 -0.1675 10.4725 -1.1875 10.8125 C-1.1875 10.1525 -1.1875 9.4925 -1.1875 8.8125 C-2.1775 9.1425 -3.1675 9.4725 -4.1875 9.8125 C-4.1875 8.8225 -4.1875 7.8325 -4.1875 6.8125 C-5.1775 6.8125 -6.1675 6.8125 -7.1875 6.8125 C-7.1875 8.1325 -7.1875 9.4525 -7.1875 10.8125 C-7.8475 10.8125 -8.5075 10.8125 -9.1875 10.8125 C-9.1875 9.4925 -9.1875 8.1725 -9.1875 6.8125 C-9.8475 6.8125 -10.5075 6.8125 -11.1875 6.8125 C-11.1875 8.1325 -11.1875 9.4525 -11.1875 10.8125 C-12.8375 10.8125 -14.4875 10.8125 -16.1875 10.8125 C-16.1875 11.4725 -16.1875 12.1325 -16.1875 12.8125 C-15.1975 12.8125 -14.2075 12.8125 -13.1875 12.8125 C-13.1875 16.7725 -13.1875 20.7325 -13.1875 24.8125 C-13.5175 24.1525 -13.8475 23.4925 -14.1875 22.8125 C-15.83113134 22.09090576 -17.49800386 21.41898579 -19.1875 20.8125 C-17.8125 18.8125 -17.8125 18.8125 -16.1875 16.8125 C-15.5275 16.8125 -14.8675 16.8125 -14.1875 16.8125 C-14.1875 15.8225 -14.1875 14.8325 -14.1875 13.8125 C-16.13749129 14.00721111 -16.13749129 14.00721111 -18.1875 14.8125 C-18.88901152 16.1278341 -19.55275925 17.46367592 -20.1875 18.8125 C-21.51142972 19.82491685 -22.84349167 20.82689389 -24.1875 21.8125 C-24.1875 22.4725 -24.1875 23.1325 -24.1875 23.8125 C-24.8475 23.8125 -25.5075 23.8125 -26.1875 23.8125 C-26.1875 20.5125 -26.1875 17.2125 -26.1875 13.8125 C-24.8675 13.4825 -23.5475 13.1525 -22.1875 12.8125 C-22.1875 11.4925 -22.1875 10.1725 -22.1875 8.8125 C-23.1775 9.1425 -24.1675 9.4725 -25.1875 9.8125 C-24.8575 8.1625 -24.5275 6.5125 -24.1875 4.8125 C-25.1775 4.4825 -26.1675 4.1525 -27.1875 3.8125 C-27.1875 3.1525 -27.1875 2.4925 -27.1875 1.8125 C-25.2075 1.8125 -23.2275 1.8125 -21.1875 1.8125 C-21.1875 1.1525 -21.1875 0.4925 -21.1875 -0.1875 C-20.5275 -0.1875 -19.8675 -0.1875 -19.1875 -0.1875 C-18.8575 0.4725 -18.5275 1.1325 -18.1875 1.8125 C-17.3625 1.3175 -16.5375 0.8225 -15.6875 0.3125 C-10.1924877 -2.04250527 -5.55901441 -1.8320669 0 0 Z " fill="#CCB679" transform="translate(66.1875,6.1875)"/>
<path d="M0 0 C0.66 0 1.32 0 2 0 C2 1.32 2 2.64 2 4 C2.66 4 3.32 4 4 4 C4 2.68 4 1.36 4 0 C4.99 0 5.98 0 7 0 C7.33 0.66 7.66 1.32 8 2 C9.32 2 10.64 2 12 2 C12.66 2.33 13.32 2.66 14 3 C14 5.31 14 7.62 14 10 C14.66 9.01 15.32 8.02 16 7 C15.814375 6.34 15.62875 5.68 15.4375 5 C15.293125 4.34 15.14875 3.68 15 3 C16.4375 1.25 16.4375 1.25 18 0 C18.33 0.66 18.66 1.32 19 2 C19.391875 2.598125 19.78375 3.19625 20.1875 3.8125 C21 6 21 6 20.125 8.75 C19.75375 9.4925 19.3825 10.235 19 11 C18.34 11 17.68 11 17 11 C15.87483915 12.83284443 15.87483915 12.83284443 15 15 C15.33 15.99 15.66 16.98 16 18 C16.66 18 17.32 18 18 18 C18.33 19.98 18.66 21.96 19 24 C18.01 24 17.02 24 16 24 C16 23.01 16 22.02 16 21 C14.72125 21.185625 13.4425 21.37125 12.125 21.5625 C8.25 22.125 8.25 22.125 6 21 C6 21.99 6 22.98 6 24 C5.34 24 4.68 24 4 24 C4 23.01 4 22.02 4 21 C3.34 21 2.68 21 2 21 C2 21.99 2 22.98 2 24 C1.34 24 0.68 24 0 24 C0 22.68 0 21.36 0 20 C-1.32 19.67 -2.64 19.34 -4 19 C-3.34 19 -2.68 19 -2 19 C-2 14.71 -2 10.42 -2 6 C-2.99 6 -3.98 6 -5 6 C-5 5.34 -5 4.68 -5 4 C-3.35 4 -1.7 4 0 4 C0 2.68 0 1.36 0 0 Z " fill="#A18C44" transform="translate(55,13)"/>
<path d="M0 0 C0.495 1.485 0.495 1.485 1 3 C-0.109375 4.82421875 -0.109375 4.82421875 -1.75 6.6875 C-2.28109375 7.31011719 -2.8121875 7.93273438 -3.359375 8.57421875 C-5 10 -5 10 -8 10 C-8.33 10.99 -8.66 11.98 -9 13 C-20.60479726 15.32095945 -20.60479726 15.32095945 -24.8203125 12.99609375 C-27.85687263 11.60841842 -30.43159723 11.80863194 -33.75 11.875 C-34.92046875 11.89304687 -36.0909375 11.91109375 -37.296875 11.9296875 C-38.18890625 11.95289063 -39.0809375 11.97609375 -40 12 C-40.33 12.99 -40.66 13.98 -41 15 C-42.32 15 -43.64 15 -45 15 C-45.33 14.34 -45.66 13.68 -46 13 C-48.12508244 16.18762365 -48.5020163 18.26512223 -49 22 C-51 20 -51 20 -52 17 C-52.66 17 -53.32 17 -54 17 C-54.66 18.32 -55.32 19.64 -56 21 C-56.33 21 -56.66 21 -57 21 C-57 19.35 -57 17.7 -57 16 C-57.66 16 -58.32 16 -59 16 C-59 12.37 -59 8.74 -59 5 C-58.34 5 -57.68 5 -57 5 C-57 4.34 -57 3.68 -57 3 C-56.443125 3.0721875 -55.88625 3.144375 -55.3125 3.21875 C-51.51278608 3.68087737 -47.82971831 4.05331809 -44 3.9375 C-39.49964814 3.85584039 -35.33540796 4.87600534 -31 6 C-31.33 6.99 -31.66 7.98 -32 9 C-38.93 8.505 -38.93 8.505 -46 8 C-46 8.66 -46 9.32 -46 10 C-37.34668845 10.22402692 -37.34668845 10.22402692 -28.75 9.4375 C-27.8425 9.293125 -26.935 9.14875 -26 9 C-25.505 9.495 -25.505 9.495 -25 10 C-22.92176348 10.1790571 -20.83546283 10.26807871 -18.75 10.3125 C-17.61046875 10.34988281 -16.4709375 10.38726562 -15.296875 10.42578125 C-11.36006301 9.91735411 -9.87233797 8.65753704 -7 6 C-6.113125 5.484375 -5.22625 4.96875 -4.3125 4.4375 C-1.74137316 3.06034626 -1.74137316 3.06034626 0 0 Z " fill="#DFD7DA" transform="translate(77,34)"/>
<path d="M0 0 C0.99 0 1.98 0 3 0 C3.33 0.99 3.66 1.98 4 3 C4.33 2.01 4.66 1.02 5 0 C6.9375 0.375 6.9375 0.375 9 1 C9.33 1.66 9.66 2.32 10 3 C10.33 2.01 10.66 1.02 11 0 C15.62 0 20.24 0 25 0 C27 6 27 6 27 8 C25.68 8.33 24.36 8.66 23 9 C23.99 9.33 24.98 9.66 26 10 C26 11.65 26 13.3 26 15 C21.05 15 16.1 15 11 15 C11 13.68 11 12.36 11 11 C8.525 12.485 8.525 12.485 6 14 C5.67 12.02 5.34 10.04 5 8 C4.34 8 3.68 8 3 8 C3 7.34 3 6.68 3 6 C1.35 6.33 -0.3 6.66 -2 7 C-1.34 4.69 -0.68 2.38 0 0 Z " fill="#9190A5" transform="translate(45,50)"/>
<path d="M0 0 C0 0.66 0 1.32 0 2 C-1.98 2 -3.96 2 -6 2 C-5.01 2.99 -4.02 3.98 -3 5 C-5.54545455 12.81818182 -5.54545455 12.81818182 -7 16 C-10.30994713 17.65497356 -13.99123 17.10084335 -17.625 17.0625 C-18.42679688 17.05798828 -19.22859375 17.05347656 -20.0546875 17.04882812 C-22.03649006 17.03703168 -24.01825433 17.01909605 -26 17 C-25.47731534 14.23723823 -24.89130413 11.6739124 -24 9 C-23.01 9 -22.02 9 -21 9 C-20.67 7.35 -20.34 5.7 -20 4 C-18.68 3.67 -17.36 3.34 -16 3 C-16 2.34 -16 1.68 -16 1 C-11.32009053 -1.41543714 -4.86032337 -2.43016169 0 0 Z " fill="#364270" transform="translate(45,6)"/>
<path d="M0 0 C0.556875 0.185625 1.11375 0.37125 1.6875 0.5625 C4.399133 1.07551165 6.34371039 0.6640724 9 0 C9.33 1.32 9.66 2.64 10 4 C10.66 2.68 11.32 1.36 12 0 C12.99 0.33 13.98 0.66 15 1 C15.33 1.99 15.66 2.98 16 4 C16.33 2.68 16.66 1.36 17 0 C17.66 0 18.32 0 19 0 C19.33 0.66 19.66 1.32 20 2 C20.33 1.34 20.66 0.68 21 0 C21.66 0 22.32 0 23 0 C22.67 1.65 22.34 3.3 22 5 C22.66 5 23.32 5 24 5 C24 3.35 24 1.7 24 0 C25.65 0 27.3 0 29 0 C29 2.64 29 5.28 29 8 C26.69 8 24.38 8 22 8 C22.33 8.66 22.66 9.32 23 10 C24.98 10 26.96 10 29 10 C29.33 11.65 29.66 13.3 30 15 C26.37 15 22.74 15 19 15 C19 14.34 19 13.68 19 13 C18.34 13 17.68 13 17 13 C16.67 13.66 16.34 14.32 16 15 C15.01 14.67 14.02 14.34 13 14 C12.67 12.02 12.34 10.04 12 8 C8.04 8 4.08 8 0 8 C0 5.36 0 2.72 0 0 Z " fill="#A6A6B6" transform="translate(11,50)"/>
<path d="M0 0 C1.32 0.33 2.64 0.66 4 1 C4 2.32 4 3.64 4 5 C3.01 5.33 2.02 5.66 1 6 C0.66923711 12.19874164 0.71331696 16.52219494 4 22 C4 22.66 4 23.32 4 24 C4.99 24.33 5.98 24.66 7 25 C7 25.66 7 26.32 7 27 C7.66 27 8.32 27 9 27 C9 27.66 9 28.32 9 29 C5.28281921 30.71301774 2.39610651 31.24878195 -1.6875 31.1875 C-2.64011719 31.18105469 -3.59273437 31.17460938 -4.57421875 31.16796875 C-7 31 -7 31 -9 30 C-9 29.34 -9 28.68 -9 28 C-4.38 28 0.24 28 5 28 C5.33 27.34 5.66 26.68 6 26 C3.27093526 25.83150207 0.54176829 25.6651397 -2.1875 25.5 C-2.95642578 25.45230469 -3.72535156 25.40460937 -4.51757812 25.35546875 C-8.351504 25.12510411 -12.15690177 24.9383872 -16 25 C-16.66 23.68 -17.32 22.36 -18 21 C-15.36 21 -12.72 21 -10 21 C-10 20.34 -10 19.68 -10 19 C-7.03 18.67 -4.06 18.34 -1 18 C-1 17.34 -1 16.68 -1 16 C-7.6 16.33 -14.2 16.66 -21 17 C-21 15.68 -21 14.36 -21 13 C-17.38132441 11.7937748 -14.07493749 11.89183082 -10.3125 11.9375 C-9.61060547 11.94201172 -8.90871094 11.94652344 -8.18554688 11.95117188 C-6.45699462 11.96293073 -4.72848635 11.98086546 -3 12 C-3.33 10.68 -3.66 9.36 -4 8 C-3.34 8 -2.68 8 -2 8 C-2 7.34 -2 6.68 -2 6 C-2.66 5.67 -3.32 5.34 -4 5 C-3.01 5 -2.02 5 -1 5 C-0.67 3.35 -0.34 1.7 0 0 Z " fill="#CBA088" transform="translate(40,14)"/>
<path d="M0 0 C-0.66 1.98 -1.32 3.96 -2 6 C-2.268125 5.360625 -2.53625 4.72125 -2.8125 4.0625 C-3.88667752 1.66868314 -3.88667752 1.66868314 -7 1 C-7 2.65 -7 4.3 -7 6 C-7.66 5.34 -8.32 4.68 -9 4 C-9 3.01 -9 2.02 -9 1 C-9.99 1 -10.98 1 -12 1 C-12.33 2.98 -12.66 4.96 -13 7 C-11.68 7 -10.36 7 -9 7 C-9 7.66 -9 8.32 -9 9 C-8.34 9 -7.68 9 -7 9 C-6.5359375 10.175625 -6.5359375 10.175625 -6.0625 11.375 C-5.07124962 13.92330128 -5.07124962 13.92330128 -4 16 C-5.32 16.99 -6.64 17.98 -8 19 C-8.66 18.01 -9.32 17.02 -10 16 C-13.08365871 15.7497843 -13.08365871 15.7497843 -16 16 C-16.33 14.35 -16.66 12.7 -17 11 C-19.31 11.33 -21.62 11.66 -24 12 C-24 11.01 -24 10.02 -24 9 C-21.69 9 -19.38 9 -17 9 C-17 6.36 -17 3.72 -17 1 C-18.65 1 -20.3 1 -22 1 C-22 2.65 -22 4.3 -22 6 C-22.66 6 -23.32 6 -24 6 C-23.67 4.35 -23.34 2.7 -23 1 C-23.66 1 -24.32 1 -25 1 C-25.33 1.99 -25.66 2.98 -26 4 C-28 0.25 -28 0.25 -28 -2 C-27.01 -2.33 -26.02 -2.66 -25 -3 C-25 -2.01 -25 -1.02 -25 0 C-23.02463255 -0.34786708 -23.02463255 -0.34786708 -21 -1 C-20.67 -1.66 -20.34 -2.32 -20 -3 C-12.93647665 -4.52976494 -5.66552644 -5.01181185 0 0 Z " fill="#D2D1D9" transform="translate(57,49)"/>
<path d="M0 0 C5.9277278 1.97590927 9.0716466 4.39969281 12 10 C12 10.66 12 11.32 12 12 C12.66 12 13.32 12 14 12 C14.19672365 13.72814161 14.38196799 15.45759197 14.5625 17.1875 C14.66691406 18.15042969 14.77132812 19.11335938 14.87890625 20.10546875 C14.99758751 22.94233377 14.67765639 25.25423671 14 28 C13.34 26.68 12.68 25.36 12 24 C10.35 24 8.7 24 7 24 C7.66 23.67 8.32 23.34 9 23 C9 22.34 9 21.68 9 21 C8.34 21 7.68 21 7 21 C7 20.01 7 19.02 7 18 C7.66 18 8.32 18 9 18 C9.97110486 14.97878489 10.13617383 12.99536737 9 10 C8.34 9.67 7.68 9.34 7 9 C5.66666667 12 5.66666667 12 7 15 C6.34 15 5.68 15 5 15 C4.34 16.32 3.68 17.64 3 19 C3 16.03 3 13.06 3 10 C2.01 10.33 1.02 10.66 0 11 C0 10.34 0 9.68 0 9 C-0.99 9.33 -1.98 9.66 -3 10 C-3.125 4.25 -3.125 4.25 -2 2 C-1.34 2 -0.68 2 0 2 C0 1.34 0 0.68 0 0 Z " fill="#CDB779" transform="translate(65,6)"/>
<path d="M0 0 C1.65 0 3.3 0 5 0 C7 5.75 7 5.75 7 8 C5.68 8.33 4.36 8.66 3 9 C3.99 9.33 4.98 9.66 6 10 C6 11.65 6 13.3 6 15 C1.05 15 -3.9 15 -9 15 C-9 13.68 -9 12.36 -9 11 C-9.66 11 -10.32 11 -11 11 C-11 10.01 -11 9.02 -11 8 C-7.37 8 -3.74 8 0 8 C0 7.34 0 6.68 0 6 C-0.66 6 -1.32 6 -2 6 C-2 4.68 -2 3.36 -2 2 C-1.34 2 -0.68 2 0 2 C0 1.34 0 0.68 0 0 Z " fill="#D3D3DA" transform="translate(65,50)"/>
<path d="M0 0 C1.65 0 3.3 0 5 0 C5 3 5 3 3 5.1875 C2.34 5.785625 1.68 6.38375 1 7 C1.639375 7.268125 2.27875 7.53625 2.9375 7.8125 C5 9 5 9 6 12 C6.66 12.33 7.32 12.66 8 13 C7.67 14.32 7.34 15.64 7 17 C7 16.01 7 15.02 7 14 C5.35 14 3.7 14 2 14 C2 16.31 2 18.62 2 21 C1.34 21 0.68 21 0 21 C-3.26944691 17.66279253 -5.69569559 14.31865244 -6.75 9.75 C-5.68366201 5.84009404 -3.37008018 5.03609011 0 3 C0 2.01 0 1.02 0 0 Z " fill="#B09B4F" transform="translate(47,20)"/>
<path d="M0 0 C3.63 0 7.26 0 11 0 C11 0.33 11 0.66 11 1 C9.35 1 7.7 1 6 1 C6 1.66 6 2.32 6 3 C6.99 3 7.98 3 9 3 C9 6.96 9 10.92 9 15 C8.67 14.34 8.34 13.68 8 13 C6.35636866 12.27840576 4.68949614 11.60648579 3 11 C4.375 9 4.375 9 6 7 C6.66 7 7.32 7 8 7 C8 6.01 8 5.02 8 4 C6.05000871 4.19471111 6.05000871 4.19471111 4 5 C3.29848848 6.3153341 2.63474075 7.65117592 2 9 C0.67607028 10.01241685 -0.65599167 11.01439389 -2 12 C-2 12.66 -2 13.32 -2 14 C-2.66 14 -3.32 14 -4 14 C-4 10.7 -4 7.4 -4 4 C-2.68 3.67 -1.36 3.34 0 3 C0 2.01 0 1.02 0 0 Z " fill="#BBA65C" transform="translate(44,16)"/>
<path d="M0 0 C0.66 0 1.32 0 2 0 C1.67 1.98 1.34 3.96 1 6 C2.32 6 3.64 6 5 6 C5 6.66 5 7.32 5 8 C5.66 8 6.32 8 7 8 C7.4640625 9.175625 7.4640625 9.175625 7.9375 10.375 C8.92875038 12.92330128 8.92875038 12.92330128 10 15 C8.68 15.99 7.36 16.98 6 18 C5.34 17.01 4.68 16.02 4 15 C0.91634129 14.7497843 0.91634129 14.7497843 -2 15 C-2.33 13.35 -2.66 11.7 -3 10 C-5.31 10.33 -7.62 10.66 -10 11 C-10 10.01 -10 9.02 -10 8 C-5.545 7.505 -5.545 7.505 -1 7 C-0.67 4.69 -0.34 2.38 0 0 Z " fill="#C2C2CD" transform="translate(43,50)"/>
<path d="M0 0 C0.556875 0.185625 1.11375 0.37125 1.6875 0.5625 C4.399133 1.07551165 6.34371039 0.6640724 9 0 C9.33 1.32 9.66 2.64 10 4 C10.66 2.68 11.32 1.36 12 0 C12.99 0.33 13.98 0.66 15 1 C15.33 2.98 15.66 4.96 16 7 C14.68 6.67 13.36 6.34 12 6 C12 6.66 12 7.32 12 8 C8.04 8 4.08 8 0 8 C0 5.36 0 2.72 0 0 Z " fill="#74748D" transform="translate(11,50)"/>
<path d="M0 0 C0.495 1.485 0.495 1.485 1 3 C-0.109375 4.82421875 -0.109375 4.82421875 -1.75 6.6875 C-2.28109375 7.31011719 -2.8121875 7.93273438 -3.359375 8.57421875 C-5 10 -5 10 -8 10 C-8.33 10.99 -8.66 11.98 -9 13 C-20.63511188 15.32702238 -20.63511188 15.32702238 -24.7890625 12.99609375 C-27.9748577 11.56079732 -30.77923552 11.81072658 -34.25 11.875 C-35.51328125 11.89304687 -36.7765625 11.91109375 -38.078125 11.9296875 C-39.04234375 11.95289063 -40.0065625 11.97609375 -41 12 C-41 11.67 -41 11.34 -41 11 C-39.27327966 10.63409254 -37.54346345 10.28277805 -35.8125 9.9375 C-34.84957031 9.74027344 -33.88664062 9.54304688 -32.89453125 9.33984375 C-29.90224527 8.98852272 -27.91489233 9.33732094 -25 10 C-22.83698607 10.16329684 -20.66863508 10.26436441 -18.5 10.3125 C-16.84484375 10.36857422 -16.84484375 10.36857422 -15.15625 10.42578125 C-11.32196031 9.90853177 -9.81081091 8.58264492 -7 6 C-6.113125 5.484375 -5.22625 4.96875 -4.3125 4.4375 C-1.74137316 3.06034626 -1.74137316 3.06034626 0 0 Z " fill="#E5D7CA" transform="translate(77,34)"/>
<path d="M0 0 C0.66 0 1.32 0 2 0 C2 1.98 2 3.96 2 6 C5.465 5.505 5.465 5.505 9 5 C9 3.35 9 1.7 9 0 C10.32 0.33 11.64 0.66 13 1 C12.49396008 3.16874252 12.00016187 4.99967627 11 7 C11.99 7.33 12.98 7.66 14 8 C14 9.65 14 11.3 14 13 C12.68 13.33 11.36 13.66 10 14 C10 12.02 10 10.04 10 8 C7.36 7.67 4.72 7.34 2 7 C1.67 9.64 1.34 12.28 1 15 C-0.32 14.67 -1.64 14.34 -3 14 C-2.34 13.67 -1.68 13.34 -1 13 C-0.53045739 9.95418731 -0.53045739 9.95418731 -0.375 6.4375 C-0.30023438 5.23996094 -0.22546875 4.04242188 -0.1484375 2.80859375 C-0.09945312 1.88175781 -0.05046875 0.95492188 0 0 Z " fill="#362D10" transform="translate(54,18)"/>
<path d="M0 0 C0 0.66 0 1.32 0 2 C-1.98 2 -3.96 2 -6 2 C-5.01 2.99 -4.02 3.98 -3 5 C-4.75 10.75 -4.75 10.75 -7 13 C-6.67 10.69 -6.34 8.38 -6 6 C-8.64 6 -11.28 6 -14 6 C-14 5.34 -14 4.68 -14 4 C-15.65 4 -17.3 4 -19 4 C-18.01 3.67 -17.02 3.34 -16 3 C-16 2.34 -16 1.68 -16 1 C-11.32009053 -1.41543714 -4.86032337 -2.43016169 0 0 Z " fill="#403759" transform="translate(45,6)"/>
<path d="M0 0 C2.64 0.33 5.28 0.66 8 1 C8.33 3.64 8.66 6.28 9 9 C7.68 9 6.36 9 5 9 C5 9.99 5 10.98 5 12 C4.34 12 3.68 12 3 12 C3 11.01 3 10.02 3 9 C2.34 9 1.68 9 1 9 C1 9.99 1 10.98 1 12 C0.34 12 -0.32 12 -1 12 C-1.08159574 7.83861737 -0.98248524 4.0527516 0 0 Z " fill="#4C4424" transform="translate(56,25)"/>
<path d="M0 0 C0.66 0 1.32 0 2 0 C2 1.32 2 2.64 2 4 C2.99 4 3.98 4 5 4 C5.33 3.01 5.66 2.02 6 1 C6 1.99 6 2.98 6 4 C6.99 4.33 7.98 4.66 9 5 C8.67 6.65 8.34 8.3 8 10 C5.69 10.33 3.38 10.66 1 11 C1 9.02 1 7.04 1 5 C0.34 5 -0.32 5 -1 5 C-1 9.29 -1 13.58 -1 18 C-1.33 18 -1.66 18 -2 18 C-2 14.04 -2 10.08 -2 6 C-2.99 6 -3.98 6 -5 6 C-5 5.34 -5 4.68 -5 4 C-3.35 4 -1.7 4 0 4 C0 2.68 0 1.36 0 0 Z " fill="#645529" transform="translate(55,13)"/>
<path d="M0 0 C1.32 0 2.64 0 4 0 C4 0.66 4 1.32 4 2 C3.01 2 2.02 2 1 2 C1 2.99 1 3.98 1 5 C2.32 5 3.64 5 5 5 C5.33 3.35 5.66 1.7 6 0 C7.32 0 8.64 0 10 0 C10.66 2.64 11.32 5.28 12 8 C7.71 8 3.42 8 -1 8 C-1.33 6.02 -1.66 4.04 -2 2 C-1.34 1.34 -0.68 0.68 0 0 Z " fill="#6F6E82" transform="translate(78,50)"/>
<path d="M0 0 C6.875 0.875 6.875 0.875 8 2 C9.99958364 2.04080783 12.00045254 2.04254356 14 2 C14.33 3.65 14.66 5.3 15 7 C11.37 7 7.74 7 4 7 C4 6.34 4 5.68 4 5 C3.34 5 2.68 5 2 5 C1.67 5.66 1.34 6.32 1 7 C0.01 6.67 -0.98 6.34 -2 6 C-1.33333333 4 -0.66666667 2 0 0 Z " fill="#9291A3" transform="translate(26,58)"/>
<path d="M0 0 C0.66 0 1.32 0 2 0 C2 0.99 2 1.98 2 3 C3.32 3 4.64 3 6 3 C5.67 5.31 5.34 7.62 5 10 C1.52176885 11.15941038 -0.45895578 10.70820884 -4 10 C-3.67 8.35 -3.34 6.7 -3 5 C-3.99 4.67 -4.98 4.34 -6 4 C-6 3.34 -6 2.68 -6 2 C-4.02 2 -2.04 2 0 2 C0 1.34 0 0.68 0 0 Z " fill="#CAAF71" transform="translate(45,6)"/>
<path d="M0 0 C0.33 1.32 0.66 2.64 1 4 C-4.94 4.33 -10.88 4.66 -17 5 C-17.66 3.68 -18.32 2.36 -19 1 C-12.62641289 0.03794912 -6.44070471 -0.10655578 0 0 Z " fill="#A92F3E" transform="translate(41,34)"/>
<path d="M0 0 C4.62 0 9.24 0 14 0 C14 1.65 14 3.3 14 5 C9.05 5 4.1 5 -1 5 C-0.67 3.35 -0.34 1.7 0 0 Z " fill="#9E9DAB" transform="translate(57,60)"/>
<path d="M0 0 C-0.639375 0.268125 -1.27875 0.53625 -1.9375 0.8125 C-4.33131686 1.88667752 -4.33131686 1.88667752 -5 5 C-7.88415883 6.44207941 -10.41721528 6.09394887 -13.625 6.0625 C-14.81351563 6.05347656 -16.00203125 6.04445313 -17.2265625 6.03515625 C-18.14179687 6.02355469 -19.05703125 6.01195312 -20 6 C-20.66 4.68 -21.32 3.36 -22 2 C-17.66666667 2 -13.33333333 2 -9 2 C-7.989375 1.484375 -6.97875 0.96875 -5.9375 0.4375 C-3 -1 -3 -1 0 0 Z " fill="#A8995F" transform="translate(72,39)"/>
<path d="M0 0 C0.99 0 1.98 0 3 0 C3.33 0.99 3.66 1.98 4 3 C4.66 2.01 5.32 1.02 6 0 C8.37813717 4.16174005 9.65793917 7.17511274 9 12 C8.01 12.66 7.02 13.32 6 14 C5.67 12.02 5.34 10.04 5 8 C4.34 8 3.68 8 3 8 C3 7.34 3 6.68 3 6 C1.35 6.33 -0.3 6.66 -2 7 C-1.34 4.69 -0.68 2.38 0 0 Z " fill="#9F9EAE" transform="translate(45,50)"/>
<path d="M0 0 C1.56041016 -0.00386719 1.56041016 -0.00386719 3.15234375 -0.0078125 C5.63915971 0.10567977 7.69342407 0.40571429 10.0625 1.125 C10.0625 1.785 10.0625 2.445 10.0625 3.125 C8.02178485 3.46410994 5.97987379 3.79602704 3.9375 4.125 C2.23207031 4.4034375 2.23207031 4.4034375 0.4921875 4.6875 C-2.69887602 5.09456049 -5.72567791 5.20309902 -8.9375 5.125 C-8.9375 3.805 -8.9375 2.485 -8.9375 1.125 C-5.73049911 0.0559997 -3.36757931 -0.00832529 0 0 Z " fill="#9E1D2E" transform="translate(27.9375,25.875)"/>
<path d="M0 0 C2.97 0.495 2.97 0.495 6 1 C6.33 1.99 6.66 2.98 7 4 C7.99 4.33 8.98 4.66 10 5 C10 5.66 10 6.32 10 7 C10.99 7 11.98 7 13 7 C12.67 7.99 12.34 8.98 12 10 C11.01 10 10.02 10 9 10 C9 9.34 9 8.68 9 8 C8.1028125 8.2784375 8.1028125 8.2784375 7.1875 8.5625 C5 9 5 9 2 8 C1.67 8.66 1.34 9.32 1 10 C0.67 6.7 0.34 3.4 0 0 Z " fill="#D2BC72" transform="translate(48,33)"/>
<path d="M0 0 C0.33 0.99 0.66 1.98 1 3 C1.78375 3.144375 2.5675 3.28875 3.375 3.4375 C6 4 6 4 8 5 C9.53668865 5.22467831 11.07968054 5.40796805 12.625 5.5625 C13.85089844 5.68818359 13.85089844 5.68818359 15.1015625 5.81640625 C15.72804688 5.87699219 16.35453125 5.93757813 17 6 C15 8 15 8 11.0859375 8.1953125 C9.51550649 8.18200376 7.94513779 8.15813602 6.375 8.125 C5.57320312 8.11597656 4.77140625 8.10695313 3.9453125 8.09765625 C1.96341477 8.07406223 -0.01832981 8.03819065 -2 8 C-1.47731534 5.23723823 -0.89130413 2.6739124 0 0 Z " fill="#414B71" transform="translate(21,15)"/>
<path d="M0 0 C6.27 0 12.54 0 19 0 C19 1.32 19 2.64 19 4 C16.2079699 3.8595017 13.41650204 3.71284617 10.625 3.5625 C9.8309375 3.52318359 9.036875 3.48386719 8.21875 3.44335938 C2.2265625 3.11328125 2.2265625 3.11328125 0 2 C0 1.34 0 0.68 0 0 Z " fill="#ECDFE3" transform="translate(19,23)"/>
<path d="M0 0 C0.99 0.33 1.98 0.66 3 1 C3 1.66 3 2.32 3 3 C3.99 3.33 4.98 3.66 6 4 C7 5.6875 7 5.6875 7 8 C5.51833532 10.23616552 3.84112784 12.02415549 2 14 C0.0625 13.25 0.0625 13.25 -2 12 C-2.75 9.875 -2.75 9.875 -3 8 C-2.01 8 -1.02 8 0 8 C0 8.99 0 9.98 0 11 C0.99 11 1.98 11 3 11 C2.67 9.02 2.34 7.04 2 5 C1.34 5 0.68 5 0 5 C-0.66 3.68 -1.32 2.36 -2 1 C-1.34 0.67 -0.68 0.34 0 0 Z " fill="#BDAB69" transform="translate(71,26)"/>
<path d="M0 0 C0.33 0 0.66 0 1 0 C1.19672365 1.72814161 1.38196799 3.45759197 1.5625 5.1875 C1.66691406 6.15042969 1.77132812 7.11335938 1.87890625 8.10546875 C1.99758751 10.94233377 1.67765639 13.25423671 1 16 C0.34 14.68 -0.32 13.36 -1 12 C-2.65 12 -4.3 12 -6 12 C-5.34 11.67 -4.68 11.34 -4 11 C-4 10.34 -4 9.68 -4 9 C-4.66 8.67 -5.32 8.34 -6 8 C-5.01 8 -4.02 8 -3 8 C-2.67 7.01 -2.34 6.02 -2 5 C-1.34 5 -0.68 5 0 5 C0 3.35 0 1.7 0 0 Z " fill="#DBC995" transform="translate(78,18)"/>
<path d="M0 0 C4.62 0 9.24 0 14 0 C14.33 0.99 14.66 1.98 15 3 C10.05 3.33 5.1 3.66 0 4 C0 2.68 0 1.36 0 0 Z " fill="#FAE8EC" transform="translate(25,30)"/>
<path d="M0 0 C3.55885219 0.86994165 5.53230654 1.42317806 7.875 4.3125 C9.08631789 7.20620384 9.488582 8.90564731 9 12 C7.6875 13.8125 7.6875 13.8125 6 15 C5.01 15 4.02 15 3 15 C3 14.34 3 13.68 3 13 C3.66 13 4.32 13 5 13 C5.97110486 9.97878489 6.13617383 7.99536737 5 5 C4.34 4.67 3.68 4.34 3 4 C2.01 4.495 2.01 4.495 1 5 C0.67 3.35 0.34 1.7 0 0 Z " fill="#C4B370" transform="translate(69,11)"/>
<path d="M0 0 C1 3 1 3 0.3125 5 C-1.17083899 7.26032608 -2.83738401 8.41408161 -5 10 C-5 10.66 -5 11.32 -5 12 C-5.66 12 -6.32 12 -7 12 C-7 9.03 -7 6.06 -7 3 C-4.03 3.495 -4.03 3.495 -1 4 C-1.33 3.01 -1.66 2.02 -2 1 C-1.34 0.67 -0.68 0.34 0 0 Z " fill="#B9A456" transform="translate(47,18)"/>
<path d="M0 0 C3 1 3 1 4 3 C4.33 2.01 4.66 1.02 5 0 C5.99 0 6.98 0 8 0 C8 2.31 8 4.62 8 7 C5.33333333 7 2.66666667 7 0 7 C0 4.69 0 2.38 0 0 Z " fill="#545270" transform="translate(51,50)"/>
<path d="M0 0 C1.45880109 0.14107747 2.91703551 0.28802415 4.375 0.4375 C5.59316406 0.55931641 5.59316406 0.55931641 6.8359375 0.68359375 C9 1 9 1 11 2 C10.67 2.99 10.34 3.98 10 5 C6.04 4.67 2.08 4.34 -2 4 C-1.34 3.67 -0.68 3.34 0 3 C0 2.01 0 1.02 0 0 Z " fill="#E5CFCD" transform="translate(35,38)"/>
<path d="M0 0 C0.66 0 1.32 0 2 0 C2 3.3 2 6.6 2 10 C2.66 10 3.32 10 4 10 C4 11.65 4 13.3 4 15 C2.35 14.67 0.7 14.34 -1 14 C-1 12.68 -1 11.36 -1 10 C-0.34 10 0.32 10 1 10 C0.67 9.34 0.34 8.68 0 8 C-0.13415472 5.3276379 -0.04318541 2.67749512 0 0 Z " fill="#6E6C80" transform="translate(73,50)"/>
<path d="M0 0 C1.65 0.33 3.3 0.66 5 1 C4.67 3.97 4.34 6.94 4 10 C2.02 10 0.04 10 -2 10 C-1.67 9.01 -1.34 8.02 -1 7 C-0.34 7 0.32 7 1 7 C1 6.34 1 5.68 1 5 C1.66 5 2.32 5 3 5 C3 4.34 3 3.68 3 3 C1.68 3 0.36 3 -1 3 C-0.67 2.01 -0.34 1.02 0 0 Z " fill="#25305F" transform="translate(34,11)"/>
<path d="M0 0 C5.61 0 11.22 0 17 0 C16.67 0.66 16.34 1.32 16 2 C12.89936477 3.03354508 10.68555932 3.13364996 7.4375 3.125 C6.46683594 3.12757812 5.49617188 3.13015625 4.49609375 3.1328125 C2 3 2 3 0 2 C0 1.34 0 0.68 0 0 Z " fill="#A2474B" transform="translate(31,42)"/>
<path d="M0 0 C0.98120464 3.05263664 0.98120464 4.94736336 0 8 C-1.65 8 -3.3 8 -5 8 C-5.33 6.35 -5.66 4.7 -6 3 C-2.25 0 -2.25 0 0 0 Z " fill="#DCC688" transform="translate(55,8)"/>
<path d="M0 0 C1.65 0 3.3 0 5 0 C5 3 5 3 3 5.1875 C2.34 5.785625 1.68 6.38375 1 7 C1.639375 7.268125 2.27875 7.53625 2.9375 7.8125 C5 9 5 9 6 12 C5.01 12.33 4.02 12.66 3 13 C2.896875 12.360625 2.79375 11.72125 2.6875 11.0625 C2.460625 10.381875 2.23375 9.70125 2 9 C1.01 8.67 0.02 8.34 -1 8 C-0.67 5.36 -0.34 2.72 0 0 Z " fill="#927E41" transform="translate(47,20)"/>
<path d="M0 0 C0.99 0 1.98 0 3 0 C5.1875 2.5 5.1875 2.5 7 5 C5 7 5 7 1.375 7.125 C0.26125 7.08375 -0.8525 7.0425 -2 7 C-1.42415568 4.61435923 -0.77772405 2.33317216 0 0 Z " fill="#CBCBD3" transform="translate(69,61)"/>
<path d="M0 0 C2.475 0.495 2.475 0.495 5 1 C5.33 3.31 5.66 5.62 6 8 C5.34 8 4.68 8 4 8 C4 7.34 4 6.68 4 6 C2.68 6.33 1.36 6.66 0 7 C0 4.69 0 2.38 0 0 Z " fill="#504F6C" transform="translate(66,50)"/>
<path d="M0 0 C0.66 1.32 1.32 2.64 2 4 C-2.62 4 -7.24 4 -12 4 C-11.67 3.34 -11.34 2.68 -11 2 C-8.49609375 1.3671875 -8.49609375 1.3671875 -5.4375 0.875 C-3.91962891 0.62363281 -3.91962891 0.62363281 -2.37109375 0.3671875 C-1.58863281 0.24601562 -0.80617188 0.12484375 0 0 Z " fill="#E0DEE6" transform="translate(68,46)"/>
<path d="M0 0 C2.97 0.495 2.97 0.495 6 1 C6 2.65 6 4.3 6 6 C4.02 6 2.04 6 0 6 C0 4.02 0 2.04 0 0 Z " fill="#AB9C67" transform="translate(57,25)"/>
<path d="M0 0 C0.66 0 1.32 0 2 0 C3.18609365 5.6932495 2.66251802 9.42567486 1 15 C-0.32 14.67 -1.64 14.34 -3 14 C-2.34 13.67 -1.68 13.34 -1 13 C-0.53045739 9.95418731 -0.53045739 9.95418731 -0.375 6.4375 C-0.30023438 5.23996094 -0.22546875 4.04242188 -0.1484375 2.80859375 C-0.09945312 1.88175781 -0.05046875 0.95492188 0 0 Z " fill="#2D2607" transform="translate(54,18)"/>
<path d="M0 0 C0.33 0 0.66 0 1 0 C1 3.96 1 7.92 1 12 C0.67 11.34 0.34 10.68 0 10 C-1.64363134 9.27840576 -3.31050386 8.60648579 -5 8 C-3.625 6 -3.625 6 -2 4 C-1.34 4 -0.68 4 0 4 C0 2.68 0 1.36 0 0 Z " fill="#CAB979" transform="translate(52,19)"/>
<path d="M0 0 C1.98 0.99 3.96 1.98 6 3 C6 3.66 6 4.32 6 5 C5.01 5 4.02 5 3 5 C3 5.99 3 6.98 3 8 C2.34 8 1.68 8 1 8 C1 7.34 1 6.68 1 6 C0.01 5.67 -0.98 5.34 -2 5 C-1.34 3.35 -0.68 1.7 0 0 Z " fill="#4A5584" transform="translate(25,10)"/>
<path d="M0 0 C1.98 0 3.96 0 6 0 C6.33 1.65 6.66 3.3 7 5 C4.36 5 1.72 5 -1 5 C-0.67 3.35 -0.34 1.7 0 0 Z " fill="#898899" transform="translate(34,60)"/>
<path d="M0 0 C0.99 0.33 1.98 0.66 3 1 C2.360625 1.268125 1.72125 1.53625 1.0625 1.8125 C-1.33131686 2.88667752 -1.33131686 2.88667752 -2 6 C-4.64 6 -7.28 6 -10 6 C-9.34 5.67 -8.68 5.34 -8 5 C-8 4.34 -8 3.68 -8 3 C-7.236875 2.87625 -6.47375 2.7525 -5.6875 2.625 C-2.79732864 2.11897208 -2.79732864 2.11897208 0 0 Z " fill="#A29151" transform="translate(69,38)"/>
<path d="M0 0 C1.63001953 0.01353516 1.63001953 0.01353516 3.29296875 0.02734375 C4.12441406 0.03894531 4.95585938 0.05054687 5.8125 0.0625 C5.8125 0.3925 5.8125 0.7225 5.8125 1.0625 C2.1825 1.0625 -1.4475 1.0625 -5.1875 1.0625 C-4.5275 2.3825 -3.8675 3.7025 -3.1875 5.0625 C-5.1675 5.0625 -7.1475 5.0625 -9.1875 5.0625 C-9.1875 3.7425 -9.1875 2.4225 -9.1875 1.0625 C-5.90230525 -0.03256492 -3.45086585 -0.03710608 0 0 Z " fill="#B24B57" transform="translate(28.1875,25.9375)"/>
<path d="M0 0 C1.32 0.33 2.64 0.66 4 1 C4 2.32 4 3.64 4 5 C3.01 5.33 2.02 5.66 1 6 C0.67 6.99 0.34 7.98 0 9 C-1.32 8.67 -2.64 8.34 -4 8 C-3.34 8 -2.68 8 -2 8 C-2 7.34 -2 6.68 -2 6 C-2.66 5.67 -3.32 5.34 -4 5 C-3.01 5 -2.02 5 -1 5 C-0.67 3.35 -0.34 1.7 0 0 Z " fill="#A79D7D" transform="translate(40,14)"/>
<path d="M0 0 C0.66 0 1.32 0 2 0 C2.33 1.65 2.66 3.3 3 5 C0.08517222 5.80967438 -1.46113217 6.21845993 -4.3125 5.0625 C-4.869375 4.711875 -5.42625 4.36125 -6 4 C-6 3.34 -6 2.68 -6 2 C-4.02 2 -2.04 2 0 2 C0 1.34 0 0.68 0 0 Z " fill="#CAB1A1" transform="translate(45,6)"/>
<path d="M0 0 C1.8871875 0.0309375 1.8871875 0.0309375 3.8125 0.0625 C2.4925 0.3925 1.1725 0.7225 -0.1875 1.0625 C-0.1875 2.0525 -0.1875 3.0425 -0.1875 4.0625 C-3.4875 4.0625 -6.7875 4.0625 -10.1875 4.0625 C-6.68766122 0.56266122 -4.74438704 -0.07777684 0 0 Z " fill="#CDBC85" transform="translate(58.1875,4.9375)"/>
<path d="M0 0 C0.99 0.33 1.98 0.66 3 1 C3.33 2.98 3.66 4.96 4 7 C2.02 7 0.04 7 -2 7 C-1.125 1.125 -1.125 1.125 0 0 Z " fill="#43425E" transform="translate(23,50)"/>
<path d="M0 0 C0.66 0 1.32 0 2 0 C2.33 0.66 2.66 1.32 3 2 C3.33 1.34 3.66 0.68 4 0 C4.66 0 5.32 0 6 0 C6 2.31 6 4.62 6 7 C4 7 2 7 0 7 C0 4.69 0 2.38 0 0 Z " fill="#454362" transform="translate(28,50)"/>
<path d="M0 0 C0.33 0.99 0.66 1.98 1 3 C-0.56181132 5.74197701 -2.60411783 7.95580695 -5 10 C-7.875 10.4375 -7.875 10.4375 -10 10 C-9.67 9.01 -9.34 8.02 -9 7 C-7 6 -5 5 -3 4 C-1.14684743 1.95053601 -1.14684743 1.95053601 0 0 Z " fill="#D7CEB4" transform="translate(77,34)"/>
<path d="M0 0 C0.99 0 1.98 0 3 0 C3.33 0.66 3.66 1.32 4 2 C5.32 2 6.64 2 8 2 C8.66 2.33 9.32 2.66 10 3 C9.67 5.31 9.34 7.62 9 10 C8.814375 9.38125 8.62875 8.7625 8.4375 8.125 C6.28562767 4.94397134 3.62466237 4.80548053 0 4 C0 2.68 0 1.36 0 0 Z " fill="#A89357" transform="translate(59,13)"/>
<path d="M0 0 C0 1.98 0 3.96 0 6 C-2.97 5.505 -2.97 5.505 -6 5 C-6.33 3.68 -6.66 2.36 -7 1 C-4.50935112 0.31292445 -2.62113708 0 0 0 Z " fill="#848394" transform="translate(49,59)"/>
<path d="M0 0 C0.99 0 1.98 0 3 0 C3.33 2.31 3.66 4.62 4 7 C2.02 7 0.04 7 -2 7 C-1.34 4.69 -0.68 2.38 0 0 Z " fill="#403F5B" transform="translate(45,50)"/>
<path d="M0 0 C1.32 0.66 2.64 1.32 4 2 C2.625 3.5 2.625 3.5 1 5 C0.34 5 -0.32 5 -1 5 C-0.67 6.32 -0.34 7.64 0 9 C-0.99 9.33 -1.98 9.66 -3 10 C-3.125 4.25 -3.125 4.25 -2 2 C-1.34 2 -0.68 2 0 2 C0 1.34 0 0.68 0 0 Z " fill="#D7C287" transform="translate(65,6)"/>
<path d="M0 0 C0.99 0.495 0.99 0.495 2 1 C2 2.32 2 3.64 2 5 C3.98 5.66 5.96 6.32 8 7 C7.67 7.66 7.34 8.32 7 9 C5.35 8.67 3.7 8.34 2 8 C1.67 8.66 1.34 9.32 1 10 C0.67 6.7 0.34 3.4 0 0 Z " fill="#C2AF68" transform="translate(48,33)"/>
<path d="M0 0 C0.8971875 0.5259375 0.8971875 0.5259375 1.8125 1.0625 C1.8125 1.7225 1.8125 2.3825 1.8125 3.0625 C1.1525 3.0625 0.4925 3.0625 -0.1875 3.0625 C-0.5175 3.7225 -0.8475 4.3825 -1.1875 5.0625 C-1.8475 5.0625 -2.5075 5.0625 -3.1875 5.0625 C-3.1875 4.4025 -3.1875 3.7425 -3.1875 3.0625 C-4.8375 3.0625 -6.4875 3.0625 -8.1875 3.0625 C-7.1975 2.7325 -6.2075 2.4025 -5.1875 2.0625 C-5.1875 1.4025 -5.1875 0.7425 -5.1875 0.0625 C-2.1875 -0.9375 -2.1875 -0.9375 0 0 Z " fill="#4D577E" transform="translate(34.1875,6.9375)"/>
<path d="M0 0 C0.99 0 1.98 0 3 0 C3 1.65 3 3.3 3 5 C3.66 5 4.32 5 5 5 C5 5.66 5 6.32 5 7 C3.35 7 1.7 7 0 7 C0 4.69 0 2.38 0 0 Z " fill="#4F4E66" transform="translate(11,50)"/>
<path d="M0 0 C1.32 0 2.64 0 4 0 C4 2.31 4 4.62 4 7 C2.68 7 1.36 7 0 7 C0 4.69 0 2.38 0 0 Z " fill="#494A61" transform="translate(35,50)"/>
<path d="M0 0 C1.32 0 2.64 0 4 0 C4 1.98 4 3.96 4 6 C2.68 6 1.36 6 0 6 C0 4.02 0 2.04 0 0 Z " fill="#504E65" transform="translate(84,50)"/>
<path d="M0 0 C0 0.99 0 1.98 0 3 C-2.31 3.66 -4.62 4.32 -7 5 C-7.99 4.01 -8.98 3.02 -10 2 C-8.7090864 1.66376204 -7.41723903 1.33110751 -6.125 1 C-5.40570312 0.814375 -4.68640625 0.62875 -3.9453125 0.4375 C-2 0 -2 0 0 0 Z " fill="#F6E7E8" transform="translate(35,38)"/>
<path d="M0 0 C0.66 0 1.32 0 2 0 C2 0.99 2 1.98 2 3 C2.66 3 3.32 3 4 3 C4.33 2.01 4.66 1.02 5 0 C5 1.98 5 3.96 5 6 C3.68 6 2.36 6 1 6 C1 5.34 1 4.68 1 4 C0.01 3.67 -0.98 3.34 -2 3 C-1.34 3 -0.68 3 0 3 C0 2.01 0 1.02 0 0 Z " fill="#AF9C5E" transform="translate(57,34)"/>
<path d="M0 0 C4.62 0 9.24 0 14 0 C14.33 0.99 14.66 1.98 15 3 C13.02 3 11.04 3 9 3 C9 2.67 9 2.34 9 2 C6.03 1.67 3.06 1.34 0 1 C0 0.67 0 0.34 0 0 Z " fill="#F1CBCB" transform="translate(25,30)"/>
<path d="M0 0 C2.97 0 5.94 0 9 0 C9.33 0.66 9.66 1.32 10 2 C2.25 3.125 2.25 3.125 0 2 C0 1.34 0 0.68 0 0 Z " fill="#F8F4F9" transform="translate(19,23)"/>
<path d="M0 0 C1.65 0 3.3 0 5 0 C4.67 1.65 4.34 3.3 4 5 C2.68 5 1.36 5 0 5 C0 3.35 0 1.7 0 0 Z " fill="#B4A56A" transform="translate(57,19)"/>
<path d="M0 0 C2 2 2 2 3 5 C2.67 5.99 2.34 6.98 2 8 C1.01 7.67 0.02 7.34 -1 7 C-1.8125 5.125 -1.8125 5.125 -2 3 C-1.34 2.01 -0.68 1.02 0 0 Z " fill="#B0974B" transform="translate(72,13)"/>
<path d="M0 0 C1.45823212 -0.0270043 2.91660675 -0.04639787 4.375 -0.0625 C5.18710937 -0.07410156 5.99921875 -0.08570313 6.8359375 -0.09765625 C9 0 9 0 11 1 C11 1.66 11 2.32 11 3 C8.69 3 6.38 3 4 3 C4 2.34 4 1.68 4 1 C2.68 0.67 1.36 0.34 0 0 Z " fill="#784D57" transform="translate(34,5)"/>
<path d="M0 0 C1.65 0 3.3 0 5 0 C5.33 0.66 5.66 1.32 6 2 C8.52733235 2.65555119 8.52733235 2.65555119 11 3 C11 3.33 11 3.66 11 4 C3.51234156 4.3682455 3.51234156 4.3682455 1 2.5625 C0 1 0 1 0 0 Z " fill="#E7C3C7" transform="translate(19,31)"/>
<path d="M0 0 C2.475 0.99 2.475 0.99 5 2 C4.34 4.31 3.68 6.62 3 9 C1.66666667 6.33333333 0.33333333 3.66666667 -1 1 C-0.67 0.67 -0.34 0.34 0 0 Z " fill="#CBCAD4" transform="translate(52,46)"/>
<path d="M0 0 C2.1519437 3.22791555 2.20086443 4.28400809 2 8 C0 8 0 8 -1.625 6.5 C-2.07875 6.005 -2.5325 5.51 -3 5 C-1.125 1.125 -1.125 1.125 0 0 Z " fill="#B4A058" transform="translate(47,33)"/>
<path d="M0 0 C0.33 0 0.66 0 1 0 C1 2.31 1 4.62 1 7 C2.32 6.67 3.64 6.34 5 6 C4.67 6.66 4.34 7.32 4 8 C2.68 8 1.36 8 0 8 C0 7.34 0 6.68 0 6 C-0.66 6 -1.32 6 -2 6 C-2 4.68 -2 3.36 -2 2 C-1.34 2 -0.68 2 0 2 C0 1.34 0 0.68 0 0 Z " fill="#A6A6BC" transform="translate(65,50)"/>
<path d="M0 0 C0.33 0.99 0.66 1.98 1 3 C1.99 3.33 2.98 3.66 4 4 C3.67 5.65 3.34 7.3 3 9 C2.67 7.68 2.34 6.36 2 5 C0.35 5 -1.3 5 -3 5 C-3 4.34 -3 3.68 -3 3 C-2.01 3 -1.02 3 0 3 C0 2.01 0 1.02 0 0 Z " fill="#54471B" transform="translate(60,14)"/>
<path d="M0 0 C3.16115776 1.36983503 3.9927092 1.9890638 6 5 C6.07905064 7.33199388 6.08798769 9.66832622 6 12 C5.67 12 5.34 12 5 12 C5 10.02 5 8.04 5 6 C4.34 6 3.68 6 3 6 C2.01 4.02 1.02 2.04 0 0 Z " fill="#DCD4BC" transform="translate(74,12)"/>
<path d="M0 0 C1.32 0.33 2.64 0.66 4 1 C4 1.66 4 2.32 4 3 C5.32 2.67 6.64 2.34 8 2 C7.67 3.32 7.34 4.64 7 6 C4.69 5.01 2.38 4.02 0 3 C0 2.01 0 1.02 0 0 Z " fill="#111E4E" transform="translate(22,15)"/>
<path d="M0 0 C2.31 0 4.62 0 7 0 C7.33 0.66 7.66 1.32 8 2 C5.29120665 3.35439668 2.99066732 3.06501451 0 3 C0 2.01 0 1.02 0 0 Z " fill="#757387" transform="translate(56,61)"/>
<path d="M0 0 C1.65 0 3.3 0 5 0 C5 1.65 5 3.3 5 5 C3.35 4.67 1.7 4.34 0 4 C0 2.68 0 1.36 0 0 Z " fill="#717084" transform="translate(66,60)"/>
<path d="M0 0 C1.32 0 2.64 0 4 0 C3.34 2.31 2.68 4.62 2 7 C1.34 7 0.68 7 0 7 C0 4.69 0 2.38 0 0 Z " fill="#424058" transform="translate(61,50)"/>
<path d="M0 0 C0.99 0.33 1.98 0.66 3 1 C3 2.32 3 3.64 3 5 C3.66 5 4.32 5 5 5 C5 5.66 5 6.32 5 7 C3.33333333 7 1.66666667 7 0 7 C0 4.69 0 2.38 0 0 Z " fill="#36344C" transform="translate(51,50)"/>
<path d="M0 0 C2.31 0 4.62 0 7 0 C7 0.99 7 1.98 7 3 C4.69 2.67 2.38 2.34 0 2 C0 1.34 0 0.68 0 0 Z " fill="#6F2830" transform="translate(31,42)"/>
<path d="M0 0 C0.66 0 1.32 0 2 0 C2.33 1.32 2.66 2.64 3 4 C-0.63 4 -4.26 4 -8 4 C-8 3.67 -8 3.34 -8 3 C-5.36 3 -2.72 3 0 3 C0 2.01 0 1.02 0 0 Z " fill="#A5494E" transform="translate(39,34)"/>
<path d="M0 0 C0.66 0 1.32 0 2 0 C2.33 1.98 2.66 3.96 3 6 C2.01 6 1.02 6 0 6 C-0.38218767 4.34385343 -0.71395102 2.67542976 -1 1 C-0.67 0.67 -0.34 0.34 0 0 Z " fill="#907D3D" transform="translate(71,31)"/>
<path d="M0 0 C0.99 0 1.98 0 3 0 C3 3 3 3 1.6875 4.6875 C0 6 0 6 -3 6 C-3 5.34 -3 4.68 -3 4 C-2.34 4 -1.68 4 -1 4 C-0.67 2.68 -0.34 1.36 0 0 Z " fill="#BCA861" transform="translate(75,20)"/>
<path d="M0 0 C0.99 0 1.98 0 3 0 C3 0.99 3 1.98 3 3 C3.99 3 4.98 3 6 3 C5.67 3.99 5.34 4.98 5 6 C3.0625 5.25 3.0625 5.25 1 4 C0.25 1.875 0.25 1.875 0 0 Z " fill="#B9A45D" transform="translate(68,34)"/>
<path d="M0 0 C1.32 0.66 2.64 1.32 4 2 C4 3.65 4 5.3 4 7 C3.01 7.495 3.01 7.495 2 8 C1.87625 7.360625 1.7525 6.72125 1.625 6.0625 C1.315625 5.0415625 1.315625 5.0415625 1 4 C0.34 3.67 -0.32 3.34 -1 3 C-0.67 2.01 -0.34 1.02 0 0 Z " fill="#827040" transform="translate(66,22)"/>
<path d="M0 0 C1.65 0 3.3 0 5 0 C5 0.99 5 1.98 5 3 C3.02 3.99 3.02 3.99 1 5 C0.67 3.35 0.34 1.7 0 0 Z " fill="#9E8944" transform="translate(47,20)"/>
</svg>
